HIERARCHY
ROOT Joint0
{
  OFFSET 0.0000 0.0000 1.0000
  CHANNELS 6 Xposition Yposition Zposition Zrotation Xrotation Yrotation
  JOINT Joint1
  {
    OFFSET 0.0811 -0.0899 -0.0114
    CHANNELS 3 Zrotation Xrotation Yrotation
    JOINT Joint4
    {
      OFFSET 0.0297 -0.3677 -0.0039
      CHANNELS 3 Zrotation Xrotation Yrotation
      JOINT Joint7
      {
        OFFSET -0.0120 -0.3841 -0.0490
        CHANNELS 3 Zrotation Xrotation Yrotation
        JOINT Joint10
        {
          OFFSET 0.0247 -0.0555 0.1226
          CHANNELS 3 Zrotation Xrotation Yrotation
          End Site
          {
            OFFSET 0.0247 -0.0555 0.1226
          }
        }
      }
    }
  }
  JOINT Joint2
  {
    OFFSET -0.0773 -0.0878 -0.0084
    CHANNELS 3 Zrotation Xrotation Yrotation
    JOINT Joint5
    {
      OFFSET -0.0344 -0.3716 -0.0062
      CHANNELS 3 Zrotation Xrotation Yrotation
      JOINT Joint8
      {
        OFFSET 0.0139 -0.3835 -0.0484
        CHANNELS 3 Zrotation Xrotation Yrotation
        JOINT Joint11
        {
          OFFSET -0.0293 -0.0469 0.1263
          CHANNELS 3 Zrotation Xrotation Yrotation
          End Site
          {
            OFFSET -0.0293 -0.0469 0.1263
          }
        }
      }
    }
  }
  JOINT Joint3
  {
    OFFSET -0.0027 0.1037 -0.0232
    CHANNELS 3 Zrotation Xrotation Yrotation
    JOINT Joint6
    {
      OFFSET 0.0030 0.1296 -0.0027
      CHANNELS 3 Zrotation Xrotation Yrotation
      JOINT Joint9
      {
        OFFSET 0.0015 0.0533 0.0332
        CHANNELS 3 Zrotation Xrotation Yrotation
        JOINT Joint12
        {
          OFFSET -0.0004 0.2283 -0.0600
          CHANNELS 3 Zrotation Xrotation Yrotation
          JOINT Joint15
          {
            OFFSET 0.0048 0.0641 0.0558
            CHANNELS 3 Zrotation Xrotation Yrotation
            End Site
            {
              OFFSET 0.0048 0.0641 0.0558
            }
          }
        }
        JOINT Joint13
        {
          OFFSET 0.0787 0.1275 -0.0430
          CHANNELS 3 Zrotation Xrotation Yrotation
          JOINT Joint16
          {
            OFFSET 0.0914 0.0355 -0.0086
            CHANNELS 3 Zrotation Xrotation Yrotation
            JOINT Joint18
            {
              OFFSET 0.2512 -0.0141 -0.0294
              CHANNELS 3 Zrotation Xrotation Yrotation
              JOINT Joint20
              {
                OFFSET 0.2431 0.0092 0.0027
                CHANNELS 3 Zrotation Xrotation Yrotation
                JOINT Joint22
                {
                  OFFSET 0.1053 -0.0108 0.0234
                  CHANNELS 3 Zrotation Xrotation Yrotation
                  JOINT Joint23
                  {
                    OFFSET 0.0332 0.0042 0.0030
                    CHANNELS 3 Zrotation Xrotation Yrotation
                    JOINT Joint24
                    {
                      OFFSET 0.0234 -0.0009 0.0005
                      CHANNELS 3 Zrotation Xrotation Yrotation
                      End Site
                      {
                        OFFSET 0.0234 -0.0009 0.0005
                      }
                    }
                  }
                }
                JOINT Joint25
                {
                  OFFSET 0.1126 -0.0078 -0.0002
                  CHANNELS 3 Zrotation Xrotation Yrotation
                  JOINT Joint26
                  {
                    OFFSET 0.0317 0.0021 -0.0047
                    CHANNELS 3 Zrotation Xrotation Yrotation
                    JOINT Joint27
                    {
                      OFFSET 0.0246 -0.0008 -0.0039
                      CHANNELS 3 Zrotation Xrotation Yrotation
                      End Site
                      {
                        OFFSET 0.0246 -0.0008 -0.0039
                      }
                    }
                  }
                }
                JOINT Joint28
                {
                  OFFSET 0.0860 -0.0168 -0.0403
                  CHANNELS 3 Zrotation Xrotation Yrotation
                  JOINT Joint29
                  {
                    OFFSET 0.0158 -0.0006 -0.0114
                    CHANNELS 3 Zrotation Xrotation Yrotation
                    JOINT Joint30
                    {
                      OFFSET 0.0161 -0.0011 -0.0109
                      CHANNELS 3 Zrotation Xrotation Yrotation
                      End Site
                      {
                        OFFSET 0.0161 -0.0011 -0.0109
                      }
                    }
                  }
                }
                JOINT Joint31
                {
                  OFFSET 0.0999 -0.0111 -0.0238
                  CHANNELS 3 Zrotation Xrotation Yrotation
                  JOINT Joint32
                  {
                    OFFSET 0.0286 0.0023 -0.0053
                    CHANNELS 3 Zrotation Xrotation Yrotation
                    JOINT Joint33
                    {
                      OFFSET 0.0234 -0.0009 -0.0074
                      CHANNELS 3 Zrotation Xrotation Yrotation
                      End Site
                      {
                        OFFSET 0.0234 -0.0009 -0.0074
                      }
                    }
                  }
                }
                JOINT Joint34
                {
                  OFFSET 0.0426 -0.0219 0.0277
                  CHANNELS 3 Zrotation Xrotation Yrotation
                  JOINT Joint35
                  {
                    OFFSET 0.0185 0.0008 0.0246
                    CHANNELS 3 Zrotation Xrotation Yrotation
                    JOINT Joint36
                    {
                      OFFSET 0.0221 -0.0048 0.0152
                      CHANNELS 3 Zrotation Xrotation Yrotation
                      End Site
                      {
                        OFFSET 0.0221 -0.0048 0.0152
                      }
                    }
                  }
                }
              }
            }
          }
        }
        JOINT Joint14
        {
          OFFSET -0.0815 0.1251 -0.0492
          CHANNELS 3 Zrotation Xrotation Yrotation
          JOINT Joint17
          {
            OFFSET -0.0975 0.0385 -0.0099
            CHANNELS 3 Zrotation Xrotation Yrotation
            JOINT Joint19
            {
              OFFSET -0.2546 -0.0159 -0.0229
              CHANNELS 3 Zrotation Xrotation Yrotation
              JOINT Joint21
              {
                OFFSET -0.2519 0.0079 0.0007
                CHANNELS 3 Zrotation Xrotation Yrotation
                JOINT Joint37
                {
                  OFFSET -0.1043 -0.0103 0.0246
                  CHANNELS 3 Zrotation Xrotation Yrotation
                  JOINT Joint38
                  {
                    OFFSET -0.0341 0.0034 0.0025
                    CHANNELS 3 Zrotation Xrotation Yrotation
                    JOINT Joint39
                    {
                      OFFSET -0.0236 -0.0015 -0.0003
                      CHANNELS 3 Zrotation Xrotation Yrotation
                      End Site
                      {
                        OFFSET -0.0236 -0.0015 -0.0003
                      }
                    }
                  }
                }
                JOINT Joint40
                {
                  OFFSET -0.1123 -0.0074 -0.0003
                  CHANNELS 3 Zrotation Xrotation Yrotation
                  JOINT Joint41
                  {
                    OFFSET -0.0322 0.0016 -0.0048
                    CHANNELS 3 Zrotation Xrotation Yrotation
                    JOINT Joint42
                    {
                      OFFSET -0.0245 -0.0012 -0.0045
                      CHANNELS 3 Zrotation Xrotation Yrotation
                      End Site
                      {
                        OFFSET -0.0245 -0.0012 -0.0045
                      }
                    }
                  }
                }
                JOINT Joint43
                {
                  OFFSET -0.0863 -0.0161 -0.0419
                  CHANNELS 3 Zrotation Xrotation Yrotation
                  JOINT Joint44
                  {
                    OFFSET -0.0162 -0.0001 -0.0120
                    CHANNELS 3 Zrotation Xrotation Yrotation
                    JOINT Joint45
                    {
                      OFFSET -0.0165 -0.0007 -0.0110
                      CHANNELS 3 Zrotation Xrotation Yrotation
                      End Site
                      {
                        OFFSET -0.0165 -0.0007 -0.0110
                      }
                    }
                  }
                }
                JOINT Joint46
                {
                  OFFSET -0.0999 -0.0107 -0.0248
                  CHANNELS 3 Zrotation Xrotation Yrotation
                  JOINT Joint47
                  {
                    OFFSET -0.0290 0.0016 -0.0050
                    CHANNELS 3 Zrotation Xrotation Yrotation
                    JOINT Joint48
                    {
                      OFFSET -0.0236 -0.0012 -0.0076
                      CHANNELS 3 Zrotation Xrotation Yrotation
                      End Site
                      {
                        OFFSET -0.0236 -0.0012 -0.0076
                      }
                    }
                  }
                }
                JOINT Joint49
                {
                  OFFSET -0.0397 -0.0214 0.0306
                  CHANNELS 3 Zrotation Xrotation Yrotation
                  JOINT Joint50
                  {
                    OFFSET -0.0191 0.0007 0.0247
                    CHANNELS 3 Zrotation Xrotation Yrotation
                    JOINT Joint51
                    {
                      OFFSET -0.0231 -0.0056 0.0141
                      CHANNELS 3 Zrotation Xrotation Yrotation
                      End Site
                      {
                        OFFSET -0.0231 -0.0056 0.0141
                      }
                    }
                  }
                }
              }
            }
          }
        }
      }
    }
  }
}
MOTION
Frames: 4
Frame Time: 0.0333
0.0000 0.0000 0.0000 118.2243 79.8262 23.9886 24.4374 -8.3004 -24.8962 -12.0102 20.7396 -3.9090 -1.6675 -0.6816 6.7057 -0.4233 0.0231 0.5310 -21.0617 -25.2570 2.4480 19.7667 13.5895 -15.1658 9.1897 -14.2211 42.8166 0.4548 -0.6923 -0.0305 -9.9551 6.9529 21.9750 22.9247 25.9237 2.8215 -14.1992 -10.9614 37.3856 -6.8410 -9.9491 15.2662 -7.0320 -0.1968 -16.3841 -53.8282 0.6901 13.6648 -81.9696 -33.9435 -51.1850 3.9332 -24.9743 -52.0369 -1.4856 -39.1934 10.4676 -23.4293 5.7723 3.4663 -42.9979 7.3829 -1.1755 -11.3783 -4.7843 -5.7104 -30.3295 -7.5397 0.8787 -40.6697 -8.5390 -0.0320 -19.7728 -0.4387 -5.0968 -40.3393 -20.8418 -19.1584 -29.9648 -11.0685 -6.5878 -5.4025 -21.3134 -4.5077 -36.8108 -5.6609 -6.8975 -37.0048 -15.0408 -8.6014 -22.8731 -8.2728 -9.6221 -16.5788 46.5770 23.9717 3.7487 -28.0042 2.2994 -17.8604 30.2271 8.0579 33.3536 21.5249 43.8447 26.7445 22.4695 2.6334 -22.7337 -3.0288 42.5734 16.2775 -27.6569 9.8717 24.7887 5.2215 -4.1506 43.2300 7.4881 0.6906 10.8970 -5.3432 5.7830 30.0901 -6.9669 -0.7022 40.1795 -8.2827 0.2462 19.8147 -0.1052 5.5400 39.6494 -20.5917 19.2899 29.8151 -10.8609 6.9361 5.4725 -21.1896 4.4753 36.2326 -6.2736 7.4392 38.3499 -14.9751 8.6210 21.9502 -8.5897 8.9202 15.8105 47.0581 -23.5765 -4.3351 -28.8583 -2.2757 18.1987 29.1290 -7.8687
0.0000 0.0000 0.0000 117.8210 79.6621 24.5055 24.5713 -8.4204 -24.7477 -12.0833 20.8735 -3.9036 -1.6771 -0.7233 6.9450 -0.3685 0.0264 0.4560 -21.5021 -25.3857 2.2014 19.7270 13.5443 -15.2053 8.9999 -14.0404 42.4137 0.4650 -0.6718 -0.0748 -9.9818 6.7861 22.2364 22.8730 26.1269 2.9690 -14.4072 -11.1207 37.7445 -6.7115 -9.7535 15.1492 -7.1485 -0.3034 -16.3661 -53.9933 0.8186 13.7807 -81.8042 -34.2146 -51.0423 3.9333 -25.1135 -52.1591 -1.4444 -39.2836 10.1962 -23.4814 5.6827 3.5197 -42.9182 7.3800 -1.1830 -11.4396 -4.7771 -5.7329 -30.3411 -7.5873 0.9457 -40.6641 -8.5661 0.0232 -19.6906 -0.4266 -5.0239 -40.3886 -20.8101 -19.2091 -29.9185 -11.0410 -6.6631 -5.3870 -21.3386 -4.6474 -36.7507 -5.6723 -6.8522 -37.1171 -15.0438 -8.7771 -22.7695 -8.1699 -9.6536 -16.5406 46.6779 23.9985 3.8047 -27.8580 2.2208 -18.0824 30.2027 8.1955 33.3133 21.5274 43.8272 26.4032 22.4617 2.7764 -22.7648 -3.1611 42.8404 16.2902 -27.5416 10.0455 24.7720 5.2048 -4.1983 43.2750 7.4424 0.6449 10.8131 -5.3167 5.6742 30.0056 -6.9285 -0.8034 40.1312 -8.3257 0.1879 19.7588 -0.2113 5.5467 39.6801 -20.6068 19.3316 29.7948 -10.8394 6.9049 5.4176 -21.1413 4.3713 36.1672 -6.2528 7.4310 38.2307 -14.9506 8.5497 21.8272 -8.6435 8.9196 15.6911 47.0714 -23.5586 -4.2359 -28.8436 -2.1250 18.2546 29.0664 -7.9811
0.0000 0.0000 0.0000 117.3921 79.6430 25.1588 24.6020 -8.5568 -24.7313 -12.2966 21.0817 -3.7105 -1.5597 -0.7323 7.0487 -0.3848 -0.0236 0.4163 -21.6955 -25.5042 2.2678 19.8201 13.4455 -15.3883 8.9574 -14.1252 42.7507 0.4543 -0.6514 -0.1021 -10.0497 6.7162 22.8137 23.0036 26.4708 3.0471 -14.6388 -11.6200 38.4154 -6.8358 -9.6959 15.3401 -7.4017 -0.4259 -16.6765 -54.2300 0.7942 13.8582 -81.6425 -34.3606 -51.1095 3.8758 -25.4154 -52.3541 -1.3497 -39.4576 10.1325 -23.4488 5.6636 3.5798 -42.8955 7.3588 -1.1982 -11.4601 -4.7888 -5.6955 -30.2980 -7.6098 1.0164 -40.6432 -8.6093 -0.0055 -19.6520 -0.3584 -5.0030 -40.4077 -20.8084 -19.2266 -29.9902 -11.0329 -6.7326 -5.3913 -21.2255 -4.7034 -36.7116 -5.7035 -6.7913 -37.2434 -15.0209 -8.8735 -22.7076 -8.1375 -9.6455 -16.4942 46.5959 24.0013 3.7543 -27.7187 2.1132 -18.1212 30.1637 8.2503 33.1375 21.6458 44.1562 26.0178 22.7112 3.0802 -22.9603 -3.0915 43.0649 16.4891 -27.5829 10.1781 24.7158 5.2091 -4.2366 43.3604 7.4672 0.6930 10.7663 -5.2712 5.6243 30.1207 -6.8456 -0.8940 40.0831 -8.3444 0.2021 19.8031 -0.2441 5.5715 39.7010 -20.6164 19.3901 29.7834 -10.8593 6.8880 5.4298 -21.1060 4.4349 36.1859 -6.1811 7.4594 38.2170 -14.9348 8.5810 21.7796 -8.6568 8.9529 15.6619 47.0201 -23.5405 -4.1183 -28.8684 -2.0477 18.3273 28.9860 -8.0838
0.0000 0.0000 0.0000 116.8625 79.6978 25.9073 24.5709 -8.7136 -24.7949 -12.4786 21.1449 -3.4436 -1.4432 -0.7464 7.0869 -0.4562 -0.0970 0.4116 -21.9004 -25.6680 2.4256 19.9893 13.3144 -15.5920 8.9624 -14.4059 43.3517 0.4098 -0.6312 -0.1027 -10.0818 6.8087 23.6085 23.2022 26.8375 3.1031 -14.7950 -12.1838 39.0996 -7.1326 -9.8278 15.6700 -7.7218 -0.6545 -17.1262 -54.4007 0.7115 13.8727 -81.5983 -34.4345 -51.3079 3.8328 -25.7730 -52.5371 -1.1520 -39.5464 10.1639 -23.4219 5.7124 3.5973 -42.8587 7.3504 -1.2418 -11.4178 -4.8120 -5.6406 -30.2406 -7.5848 1.0754 -40.6123 -8.6483 -0.0402 -19.6955 -0.3294 -4.9971 -40.3845 -20.8170 -19.2063 -30.0599 -11.0653 -6.7593 -5.3870 -21.0686 -4.6686 -36.7137 -5.7658 -6.7585 -37.2953 -15.0016 -8.9026 -22.7342 -8.1672 -9.6383 -16.5007 46.4760 24.0176 3.7074 -27.6509 2.0521 -18.0183 30.1905 8.2553 32.9124 21.8124 44.7092 25.5554 23.1858 3.3660 -23.2788 -2.9481 43.1893 16.6594 -27.7624 10.1812 24.6192 5.2089 -4.2441 43.4585 7.4719 0.7710 10.7980 -5.2780 5.6255 30.2886 -6.8426 -0.9125 39.9985 -8.3523 0.1829 19.8597 -0.2128 5.5930 39.7293 -20.6092 19.4473 29.7803 -10.8737 6.8541 5.4385 -21.0969 4.5275 36.2328 -6.1432 7.4542 38.2548 -14.9433 8.6871 21.7991 -8.6639 8.9972 15.7414 46.9654 -23.6202 -4.0701 -28.8763 -2.0408 18.4105 28.9638 -8.1169
